<svg width="34" height="33" viewBox="0 0 34 33" fill="none" xmlns="http://www.w3.org/2000/svg">
<path d="M10.6016 9.76155C15.6239 9.76155 18.9249 11.3642 20.5048 14.5695C21.4194 12.7726 22.9078 11.4188 24.9699 10.5082C26.7992 9.71905 28.9279 9.32446 31.3558 9.32446H34V20.1788H0L0 19.2318C0 16.0265 0.831499 13.665 2.4945 12.1473C4.24065 10.5568 6.94302 9.76155 10.6016 9.76155ZM0.0498899 33L0.0498899 23.202H34V33H0.0498899Z" fill="#03F8F8"/>
<path d="M10.6016 0.437327C15.6239 0.437327 18.9249 2.03998 20.5048 5.24528C21.4194 3.44837 22.9078 2.09461 24.9699 1.18402C26.7992 0.394832 28.9279 0.000240089 31.3558 0.000240089H34V10.8546L0 10.8546L0 9.90754C0 6.70224 0.831499 4.34076 2.4945 2.82309C4.24065 1.23258 6.94302 0.437327 10.6016 0.437327ZM0.0498899 23.6758L0.0498899 13.8777L34 13.8777V23.6758L0.0498899 23.6758Z" fill="#CF22BA"/>
</svg>
